<svg width="31" height="31" viewBox="0 0 31 31" fill="none" xmlns="http://www.w3.org/2000/svg">
<path d="M29.4398 13.26L28.4099 13.13C27.5799 13.03 26.8898 12.45 26.6198 11.65C26.4398 11.11 26.2198 10.59 25.9698 10.1C25.5898 9.34998 25.6698 8.43997 26.1798 7.77997L26.8199 6.95996C27.1999 6.46996 27.1598 5.76996 26.7198 5.32996L25.5399 4.14996C25.0999 3.70996 24.3999 3.66996 23.9099 4.04996L23.0898 4.68997C22.4198 5.20997 21.5198 5.27996 20.7698 4.89996C20.2698 4.64996 19.7498 4.42997 19.2198 4.24997C18.4198 3.97997 17.8398 3.28996 17.7398 2.45996L17.6098 1.42996C17.5298 0.809962 17.0099 0.349976 16.3899 0.349976H14.7198C14.0998 0.349976 13.5698 0.809962 13.4998 1.42996L13.3698 2.45996C13.2698 3.28996 12.6899 3.97997 11.8899 4.24997C11.3499 4.42997 10.8298 4.64996 10.3398 4.89996C9.58984 5.27996 8.67984 5.19997 8.01984 4.68997L7.19986 4.04996C6.70986 3.66996 6.00985 3.70996 5.56985 4.14996L4.38986 5.32996C3.94986 5.76996 3.90986 6.46996 4.28986 6.95996L4.92984 7.77997C5.44984 8.44997 5.51986 9.34998 5.13986 10.1C4.88986 10.6 4.66984 11.12 4.48984 11.65C4.21984 12.45 3.52986 13.03 2.69986 13.13L1.66986 13.26C1.04986 13.34 0.589844 13.86 0.589844 14.48V16.15C0.589844 16.77 1.04986 17.3 1.66986 17.37L2.69986 17.5C3.52986 17.6 4.21984 18.18 4.48984 18.98C4.66984 19.52 4.88986 20.04 5.13986 20.53C5.51986 21.28 5.43984 22.19 4.92984 22.85L4.28986 23.67C3.90986 24.16 3.94986 24.86 4.38986 25.3L5.56985 26.48C6.00985 26.92 6.70986 26.96 7.19986 26.58L8.01984 25.94C8.68984 25.42 9.58984 25.35 10.3398 25.73C10.8398 25.98 11.3599 26.2 11.8899 26.38C12.6899 26.65 13.2698 27.34 13.3698 28.17L13.4998 29.2C13.5798 29.82 14.0998 30.28 14.7198 30.28H16.3899C17.0099 30.28 17.5398 29.82 17.6098 29.2L17.7398 28.17C17.8398 27.34 18.4198 26.65 19.2198 26.38C19.7598 26.2 20.2798 25.98 20.7698 25.73C21.5198 25.35 22.4298 25.43 23.0898 25.94L23.9099 26.58C24.3999 26.96 25.0999 26.92 25.5399 26.48L26.7198 25.3C27.1598 24.86 27.1999 24.16 26.8199 23.67L26.1798 22.85C25.6598 22.18 25.5898 21.28 25.9698 20.53C26.2198 20.03 26.4398 19.51 26.6198 18.98C26.8898 18.18 27.5799 17.6 28.4099 17.5L29.4398 17.37C30.0599 17.29 30.5198 16.77 30.5198 16.15V14.48C30.5198 13.86 30.0599 13.34 29.4398 13.26ZM15.5498 21.72C12.0198 21.72 9.14984 18.86 9.14984 15.32C9.14984 11.79 12.0098 8.91998 15.5498 8.91998C19.0798 8.91998 21.9499 11.78 21.9499 15.32C21.9399 18.85 19.0798 21.72 15.5498 21.72Z" fill="#343436"/>
</svg>
